PathFileType	4	(X/Y/Z)	c:/Users/goper/Files/vsCode/490R/osim_files/C15/C15_Fast_04.trc
DataRate	CameraRate	NumFrames	NumMarkers	Units                	OrigDataRate	OrigDataStartFrame	OrigNumFrames
250.00	250.00	6	36	mm	250.0	1384	2766
                Frame#	Time	LPSIS			LASIS			LTH1			LTH2			LTH3			LTH4			LLFE			LMFE			LSH1			LSH2			LSH3			LSH4			LLMAL			LMMAL			LCAL			LMTP5			LTOE			LMTP1			RPSIS			RASIS			RTH1			RTH2			RTH3			RTH4			RLFE			RMFE			RSH1			RSH2			RSH3			RSH4			RLMAL			RMMAL			RCAL			RMTP1			RTOE			RMTP5		
		X1	Y1	Z1	X2	Y2	Z2	X3	Y3	Z3	X4	Y4	Z4	X5	Y5	Z5	X6	Y6	Z6	X7	Y7	Z7	X8	Y8	Z8	X9	Y9	Z9	X10	Y10	Z10	X11	Y11	Z11	X12	Y12	Z12	X13	Y13	Z13	X14	Y14	Z14	X15	Y15	Z15	X16	Y16	Z16	X17	Y17	Z17	X18	Y18	Z18	X19	Y19	Z19	X20	Y20	Z20	X21	Y21	Z21	X22	Y22	Z22	X23	Y23	Z23	X24	Y24	Z24	X25	Y25	Z25	X26	Y26	Z26	X27	Y27	Z27	X28	Y28	Z28	X29	Y29	Z29	X30	Y30	Z30	X31	Y31	Z31	X32	Y32	Z32	X33	Y33	Z33	X34	Y34	Z34	X35	Y35	Z35	X36	Y36	Z36

1384	5.53200	-210.04344	1028.72827	298.42535	-379.25812	1003.36987	352.00967	-320.65067	604.50616	405.69019	-323.44266	558.30060	386.81638	-369.96951	617.24255	397.44427	-372.73605	572.17926	385.58752	-336.28125	490.59738	367.01703	-328.24631	478.03549	246.66792	-267.39346	386.61673	384.88806	-263.26553	341.87970	387.98819	-328.05087	374.62341	375.57611	-315.18533	332.03006	379.46884	-237.57816	85.14021	322.38663	-251.55421	109.54317	232.24440	-173.37573	61.50914	275.83850	-353.20358	37.11554	340.46619	-409.56335	56.97661	277.16458	-368.05188	30.57617	219.27628	-204.26329	1026.66357	177.88049	-352.92291	1000.91272	103.62337	-402.59140	643.27179	36.91775	-419.11157	600.03680	44.19769	-459.78369	661.23950	47.38184	-469.97119	614.68884	51.08133	-452.20990	516.25690	70.24205	-445.75989	496.76181	191.27664	-335.54858	474.61917	67.88683	-309.70804	440.16748	64.62807	-382.45505	430.39371	58.32950	-347.22156	404.78271	54.16239	-167.74550	211.82179	115.07307	-218.16510	205.69960	194.50067	-113.29964	228.13728	171.96382	-257.28629	84.20648	182.58737	-288.00125	79.00861	124.12854	-210.80154	91.41615	75.01205
1385	5.53600	-214.78444	1028.82361	298.02823	-383.28479	1003.46509	352.30536	-322.03284	604.77386	405.82178	-326.64267	557.77368	386.36325	-371.57303	617.20374	397.59183	-374.21826	572.17902	385.81906	-336.94345	490.34232	366.93634	-329.65338	477.99136	246.88170	-267.71985	386.97299	384.79294	-263.54114	342.10532	387.95868	-328.50864	374.67252	375.85138	-315.44083	332.12762	379.68808	-237.63377	85.33033	322.32291	-251.76070	109.71819	232.18971	-173.36278	61.77295	275.81659	-353.18994	37.12193	340.47253	-409.59479	56.91775	277.17200	-368.07175	30.57345	219.30235	-209.00323	1026.94580	177.57542	-358.36597	1000.86609	103.81112	-409.41412	644.52301	36.64318	-426.38062	601.32208	43.95161	-466.30969	662.84174	47.36774	-477.11530	616.49622	51.02541	-460.33957	517.10822	71.11621	-453.56323	498.19238	191.10493	-343.04312	474.14145	68.02592	-318.24686	439.11298	64.48770	-391.03098	430.83505	58.08374	-356.41342	404.47211	53.94310	-181.11615	207.61935	114.77361	-231.76088	202.33728	194.08908	-126.17838	222.22501	171.89288	-273.96344	82.07020	181.39003	-304.80798	78.13465	122.84197	-227.28368	88.76764	73.83735
1386	5.54000	-219.15463	1029.09753	297.75623	-387.55328	1003.53253	352.62540	-323.82571	604.98743	405.89288	-328.24219	557.96472	386.50858	-373.29086	617.14624	397.70575	-375.62506	572.21515	386.40051	-337.85797	490.41122	367.16391	-331.11890	477.92877	247.10806	-268.09097	387.22006	384.76956	-263.83643	342.35895	387.91824	-328.86694	374.74332	376.04745	-315.72852	332.20230	379.86975	-237.71513	85.56702	322.21796	-251.97617	109.88972	232.12248	-173.39415	62.06302	275.75311	-353.21158	37.12703	340.48557	-409.64359	56.86800	277.16977	-368.05502	30.54079	219.28600	-213.62762	1027.26221	177.28201	-363.12671	1001.69556	103.85037	-416.12091	645.64880	36.43294	-432.65491	602.80676	43.39174	-472.67026	664.36383	47.39896	-483.86160	618.09283	50.98473	-470.34155	515.49371	73.55566	-461.29187	499.55725	190.96252	-351.41214	473.19803	67.39245	-326.55310	437.92761	64.45082	-399.57114	431.17560	57.88898	-365.52377	404.09833	53.71201	-194.93559	203.11781	114.45271	-245.59392	198.96448	193.59508	-139.42400	216.29971	171.66447	-290.99371	79.93023	180.10725	-321.85706	77.29072	121.54616	-243.96407	86.10586	72.67076
1387	5.54400	-223.10176	1029.41455	297.50537	-391.53369	1003.54785	352.91830	-325.21893	606.23444	405.15778	-329.82413	558.04901	386.59140	-375.10519	617.09668	397.76990	-376.98318	572.26196	386.98825	-338.88461	490.47476	367.40002	-332.56366	477.92184	247.31117	-268.47897	387.45535	384.73325	-264.09927	342.58563	387.87930	-329.22937	374.74200	376.24472	-316.01990	332.30219	380.06219	-237.81245	85.81068	322.11426	-252.22229	110.08754	232.07419	-171.67340	63.55487	276.46271	-353.20596	37.13717	340.47293	-409.69183	56.85598	277.18506	-368.71103	30.56662	219.12791	-218.44101	1027.43323	176.99226	-368.12503	1002.10962	103.96460	-422.82382	646.72449	36.15714	-440.37997	603.81329	43.53728	-479.48172	665.81140	46.86145	-490.64145	619.60614	51.04296	-474.64026	520.58490	70.44812	-468.83035	500.80417	190.88879	-359.07736	472.05563	67.59601	-334.78662	436.58270	64.55764	-408.06433	431.42810	57.69024	-374.53745	403.61121	53.51604	-208.31470	198.86168	114.04964	-259.08215	195.51057	193.07251	-152.47354	210.34714	171.68544	-308.02264	77.91727	178.81915	-339.15332	76.72325	119.94209	-260.70416	83.48100	71.50433
1388	5.54800	-227.54184	1029.54517	297.20203	-396.08139	1003.74683	353.17099	-326.92249	606.45691	405.19070	-331.49182	558.18469	386.69101	-376.81473	617.12225	397.91736	-378.32382	572.29047	387.29422	-339.82645	490.52936	367.65921	-333.92911	477.87210	247.51071	-268.98160	387.66760	384.68988	-264.43369	342.81174	387.84625	-329.74698	374.83990	376.46390	-316.37183	332.37836	380.21164	-237.94969	86.07003	322.00461	-252.53639	110.26331	232.01427	-171.72238	63.84689	276.41922	-353.22818	37.15784	340.47067	-409.74133	56.84393	277.19003	-367.97568	30.19541	219.07520	-223.00389	1027.62354	176.64853	-372.85172	1002.46320	104.24767	-429.34866	647.75598	35.96399	-446.56268	605.11481	43.05404	-485.93420	667.15021	46.76579	-497.42163	620.94843	51.30383	-481.81979	521.94965	70.48476	-476.52368	501.97479	190.70857	-366.54962	471.29584	67.54046	-342.66052	435.04089	65.02782	-416.45145	431.53363	57.39217	-383.51303	403.00867	53.27293	-222.12749	194.39969	113.60309	-273.00058	191.99565	192.54271	-166.03404	204.06784	171.50621	-325.03870	75.90980	177.56090	-356.23428	75.97712	118.62736	-277.49567	80.96310	70.16021
1389	5.55200	-231.93568	1029.71667	296.86298	-400.18631	1003.76141	353.51132	-328.69727	606.70013	405.28995	-333.14911	558.27423	386.78592	-378.61203	617.10510	398.04376	-379.73972	572.26489	387.56613	-341.03500	490.34067	367.75854	-335.33408	477.87741	247.69041	-269.51941	387.88217	384.70020	-264.80130	343.07822	387.82843	-330.29221	374.93011	376.71408	-316.76260	332.49329	380.37543	-238.03668	86.35784	321.94659	-252.80527	110.50013	231.93689	-171.80353	64.11556	276.39273	-353.25247	37.17730	340.47311	-409.79813	56.85624	277.20969	-368.01541	30.18779	219.05983	-227.81516	1027.77698	176.29913	-377.84857	1002.72803	104.41846	-435.79443	648.63721	35.80025	-453.88379	605.96252	43.28654	-492.27191	668.46381	46.59428	-504.23071	622.18372	50.85176	-489.42361	522.65491	71.22734	-483.82593	503.00439	190.62100	-374.07809	470.12085	67.44112	-351.39987	433.43344	64.12447	-423.57333	431.72324	56.54860	-392.56903	402.34302	53.07309	-236.02403	189.84134	113.13816	-287.51706	188.20905	191.88435	-179.82167	197.77940	171.20302	-342.46829	74.01479	176.15787	-373.43066	75.30851	117.26276	-294.49951	78.26807	69.05441
